<?xml version="1.0" encoding="UTF-8" standalone="no"?>
<!-- Created with Inkscape (http://www.inkscape.org/) -->
<svg
   xmlns:dc="http://purl.org/dc/elements/1.1/"
   xmlns:cc="http://web.resource.org/cc/"
   xmlns:rdf="http://www.w3.org/1999/02/22-rdf-syntax-ns#"
   xmlns:svg="http://www.w3.org/2000/svg"
   xmlns="http://www.w3.org/2000/svg"
   xmlns:xlink="http://www.w3.org/1999/xlink"
   xmlns:sodipodi="http://sodipodi.sourceforge.net/DTD/sodipodi-0.dtd"
   xmlns:inkscape="http://www.inkscape.org/namespaces/inkscape"
   width="744.09448819"
   height="1052.3622047"
   id="svg2"
   sodipodi:version="0.32"
   inkscape:version="0.44.1"
   sodipodi:docbase="/home/dov/cvswork/giv/giv"
   sodipodi:docname="giv-logo.svg">
  <defs
     id="defs4">
    <linearGradient
       id="linearGradient2838">
      <stop
         id="stop2840"
         offset="0"
         style="stop-color:#96c1ff;stop-opacity:1;" />
      <stop
         style="stop-color:#4b9adf;stop-opacity:1;"
         offset="0.5"
         id="stop2842" />
      <stop
         id="stop2844"
         offset="1"
         style="stop-color:#002063;stop-opacity:1;" />
    </linearGradient>
    <linearGradient
       id="linearGradient2794">
      <stop
         style="stop-color:#ffd200;stop-opacity:1;"
         offset="0"
         id="stop2796" />
      <stop
         style="stop-color:black;stop-opacity:0.99047619;"
         offset="1"
         id="stop2798" />
    </linearGradient>
    <linearGradient
       id="linearGradient2778">
      <stop
         style="stop-color:#ffb600;stop-opacity:1;"
         offset="0"
         id="stop2780" />
      <stop
         id="stop2792"
         offset="0.5"
         style="stop-color:#665100;stop-opacity:1;" />
      <stop
         style="stop-color:#3e3400;stop-opacity:1;"
         offset="1"
         id="stop2782" />
    </linearGradient>
    <radialGradient
       inkscape:collect="always"
       xlink:href="#linearGradient2838"
       id="radialGradient2788"
       cx="361.43591"
       cy="388.96762"
       fx="361.43591"
       fy="388.96762"
       r="232.57338"
       gradientTransform="matrix(3.642047e-2,1.403171,-1.24661,3.235715e-2,833.1631,-106.1175)"
       gradientUnits="userSpaceOnUse" />
    <radialGradient
       inkscape:collect="always"
       xlink:href="#linearGradient2838"
       id="radialGradient2830"
       cx="602.05103"
       cy="656.67218"
       fx="602.05103"
       fy="656.67218"
       r="100.05254"
       gradientTransform="matrix(0.281835,-0.48267,1.361335,0.794892,-461.5786,425.281)"
       gradientUnits="userSpaceOnUse" />
    <radialGradient
       inkscape:collect="always"
       xlink:href="#linearGradient2838"
       id="radialGradient2832"
       cx="455.56564"
       cy="720.70013"
       fx="455.56564"
       fy="720.70013"
       r="45.837273"
       gradientTransform="matrix(1.228939,-0.833089,1.877712,2.76993,-1455.566,-899.7009)"
       gradientUnits="userSpaceOnUse" />
    <radialGradient
       inkscape:collect="always"
       xlink:href="#linearGradient2838"
       id="radialGradient2834"
       cx="280.84506"
       cy="719.31415"
       fx="280.84506"
       fy="719.31415"
       r="67.492867"
       gradientTransform="matrix(1.343087,-1.914568,0.709711,0.497869,-606.8594,898.8877)"
       gradientUnits="userSpaceOnUse" />
    <radialGradient
       inkscape:collect="always"
       xlink:href="#linearGradient2838"
       id="radialGradient2836"
       cx="157.60767"
       cy="652.03308"
       fx="157.60767"
       fy="652.03308"
       r="103.80201"
       gradientTransform="matrix(1.135579,-0.765849,0.296905,0.440242,-214.9603,485.6839)"
       gradientUnits="userSpaceOnUse" />
  </defs>
  <sodipodi:namedview
     id="base"
     pagecolor="#ffffff"
     bordercolor="#666666"
     borderopacity="1.0"
     gridtolerance="10000"
     guidetolerance="10"
     objecttolerance="10"
     inkscape:pageopacity="0.0"
     inkscape:pageshadow="2"
     inkscape:zoom="0.31724062"
     inkscape:cx="383.27421"
     inkscape:cy="455.72697"
     inkscape:document-units="px"
     inkscape:current-layer="layer1"
     inkscape:window-width="1137"
     inkscape:window-height="788"
     inkscape:window-x="3"
     inkscape:window-y="92" />
  <metadata
     id="metadata7">
    <rdf:RDF>
      <cc:Work
         rdf:about="">
        <dc:format>image/svg+xml</dc:format>
        <dc:type
           rdf:resource="http://purl.org/dc/dcmitype/StillImage" />
      </cc:Work>
    </rdf:RDF>
  </metadata>
  <g
     inkscape:label="Layer 1"
     inkscape:groupmode="layer"
     id="layer1">
    <path
       style="fill:url(#radialGradient2830);fill-opacity:1.0;fill-rule:evenodd;stroke:black;stroke-width:1pt;stroke-linecap:butt;stroke-linejoin:miter;stroke-opacity:1"
       d="M 547.01084,587.4721 C 555.30301,578.35071 630.573,627.16964 647.95189,634.1212 C 660.75925,641.63939 701.37002,692.05847 699.88368,704.64927 C 698.89403,715.53537 630.13819,709.10713 624.1001,709.10713 C 601.73497,709.10713 570.0351,689.20966 551.77191,678.25175 C 531.91985,663.5396 500.14328,645.89748 487.02096,625.52229 C 486.52256,624.85776 486.27799,632.95206 485.9065,632.20909"
       id="path2818"
       sodipodi:nodetypes="cccsccc" />
    <path
       style="fill:url(#radialGradient2832);fill-opacity:1.0;fill-rule:evenodd;stroke:black;stroke-width:1pt;stroke-linecap:butt;stroke-linejoin:miter;stroke-opacity:1"
       d="M 483.67758,634.43801 C 470.59508,616.99467 492.15186,692.01465 500.24972,712.25931 C 511.45431,740.27077 523.65523,785.9837 494.82222,792.69196 C 456.97758,795.15992 410.00464,736.99828 398.97827,705.76373 C 397.40072,697.87596 376.68899,652.97109 376.68899,651.15498"
       id="path2820"
       sodipodi:nodetypes="csccc" />
    <path
       style="fill:url(#radialGradient2836);fill-opacity:1.0;fill-rule:evenodd;stroke:black;stroke-width:1pt;stroke-linecap:butt;stroke-linejoin:miter;stroke-opacity:1"
       d="M 187.23003,587.6305 C 182.097,589.98514 170.64572,595.48189 162.71181,599.88961 C 148.33128,607.87879 134.42594,615.96956 120.36216,624.40783 C 107.92464,631.87034 98.144939,645.51059 88.042692,655.61284 C 77.264157,666.39137 66.989373,677.42748 57.952152,689.04677 C 53.266443,695.07125 54.608758,703.81563 54.608758,711.33606 C 54.608758,728.25407 85.941254,697.93699 102.53073,694.61909 C 133.56804,688.41163 161.03969,682.13743 187.23003,661.18516 C 208.10425,644.48578 234.89224,653.33531 254.0979,632.20908 C 257.01209,629.00347 258.55575,624.77932 260.78468,621.06444"
       id="path2816"
       sodipodi:nodetypes="cssssssssc" />
    <path
       style="fill:url(#radialGradient2834);fill-opacity:1.0;fill-rule:evenodd;stroke:black;stroke-width:1pt;stroke-linecap:butt;stroke-linejoin:miter;stroke-opacity:1"
       d="M 283.07397,640.01033 C 281.8623,627.89361 241.34812,686.29218 236.26647,692.39016 C 215.89867,716.83151 213.97718,737.5248 213.97718,768.17375 C 213.97718,798.17194 231.60007,793.9107 249.64004,784.89072 C 274.65111,772.38518 306.18562,753.83492 315.39344,728.05302 C 319.57162,716.35411 340.94576,687.21966 343.25505,675.6732 C 344.62186,668.83915 360.9029,660.98863 362.20095,654.49837"
       id="path2822"
       sodipodi:nodetypes="csssssc" />
    <path
       style="fill:url(#radialGradient2788);fill-opacity:1.0;fill-rule:evenodd;stroke:black;stroke-width:0.25pt;stroke-linecap:butt;stroke-linejoin:miter;stroke-opacity:1"
       d="M 367.69553,312.93052 C 367.69553,312.93052 135.36044,298.78838 131.31983,448.29096 C 127.27922,597.79354 272.74119,652.34177 361.63461,658.40269 C 450.52803,664.46361 593.9697,609.91537 595.99,504.8595 C 598.01031,399.80364 563.66512,306.8696 367.69553,312.93052 z "
       id="path1872" />
    <path
       sodipodi:type="arc"
       style="opacity:1;color:black;fill:white;fill-opacity:1;fill-rule:evenodd;stroke:black;stroke-width:0.5;stroke-linecap:square;stroke-linejoin:round;marker:none;marker-start:none;marker-mid:none;marker-end:none;stroke-miterlimit:4;stroke-dasharray:none;stroke-dashoffset:0;stroke-opacity:1;visibility:visible;display:inline;overflow:visible"
       id="path1876"
       sodipodi:cx="287.89346"
       sodipodi:cy="454.35187"
       sodipodi:rx="61.619305"
       sodipodi:ry="58.588848"
       d="M 349.51277 454.35187 A 61.619305 58.588848 0 1 1  226.27416,454.35187 A 61.619305 58.588848 0 1 1  349.51277 454.35187 z" />
    <path
       sodipodi:type="arc"
       style="opacity:1;color:black;fill:white;fill-opacity:1;fill-rule:evenodd;stroke:black;stroke-width:0.5;stroke-linecap:square;stroke-linejoin:round;marker:none;marker-start:none;marker-mid:none;marker-end:none;stroke-miterlimit:4;stroke-dasharray:none;stroke-dashoffset:0;stroke-opacity:1;visibility:visible;display:inline;overflow:visible"
       id="path1878"
       sodipodi:cx="287.89346"
       sodipodi:cy="454.35187"
       sodipodi:rx="61.619305"
       sodipodi:ry="58.588848"
       d="M 349.51277 454.35187 A 61.619305 58.588848 0 1 1  226.27416,454.35187 A 61.619305 58.588848 0 1 1  349.51277 454.35187 z"
       transform="translate(150.5128,2.020312)" />
    <path
       sodipodi:type="arc"
       style="opacity:1;color:black;fill:black;fill-opacity:1;fill-rule:evenodd;stroke:black;stroke-width:0.5;stroke-linecap:square;stroke-linejoin:round;marker:none;marker-start:none;marker-mid:none;marker-end:none;stroke-miterlimit:4;stroke-dasharray:none;stroke-dashoffset:0;stroke-opacity:1;visibility:visible;display:inline;overflow:visible"
       id="path2766"
       sodipodi:cx="289.91379"
       sodipodi:cy="482.63614"
       sodipodi:rx="31.31473"
       sodipodi:ry="30.304577"
       d="M 321.22852 482.63614 A 31.31473 30.304577 0 1 1  258.59906,482.63614 A 31.31473 30.304577 0 1 1  321.22852 482.63614 z" />
    <path
       sodipodi:type="arc"
       style="opacity:1;color:black;fill:black;fill-opacity:1;fill-rule:evenodd;stroke:black;stroke-width:0.5;stroke-linecap:square;stroke-linejoin:round;marker:none;marker-start:none;marker-mid:none;marker-end:none;stroke-miterlimit:4;stroke-dasharray:none;stroke-dashoffset:0;stroke-opacity:1;visibility:visible;display:inline;overflow:visible"
       id="path2768"
       sodipodi:cx="440.42651"
       sodipodi:cy="481.62601"
       sodipodi:rx="32.324883"
       sodipodi:ry="31.31473"
       d="M 472.7514 481.62601 A 32.324883 31.31473 0 1 1  408.10163,481.62601 A 32.324883 31.31473 0 1 1  472.7514 481.62601 z" />
  </g>
</svg>
